<svg width="8656" height="1500" viewBox="0 0 8656 1500" fill="none" xmlns="http://www.w3.org/2000/svg">
<path d="M2109.67 1014.77V1168.61C2007.11 1224.54 1888.7 1252.52 1754.44 1252.52C1645.36 1252.52 1552.83 1230.61 1476.83 1186.78C1400.85 1142.96 1340.72 1082.59 1296.43 1005.68C1252.14 928.758 1230 845.546 1230 756.041C1230 613.859 1280.58 494.286 1381.74 397.322C1483.36 300.359 1608.53 251.877 1757.24 251.877C1859.79 251.877 1973.78 278.681 2099.17 332.291V482.632C1984.97 417.368 1873.32 384.736 1764.23 384.736C1652.36 384.736 1559.35 420.164 1485.23 491.023C1411.57 561.414 1374.75 649.754 1374.75 756.041C1374.75 863.261 1411.11 951.37 1483.83 1020.36C1556.55 1089.35 1649.55 1123.85 1762.83 1123.85C1881.24 1123.85 1996.85 1087.49 2109.67 1014.77ZM2976.19 250.479C3127.22 250.479 3252.86 298.261 3353.08 393.825C3453.78 489.391 3504.13 609.197 3504.13 753.244C3504.13 897.291 3453.31 1016.63 3351.69 1111.26C3250.52 1205.43 3122.79 1252.52 2968.5 1252.52C2821.19 1252.52 2698.35 1205.43 2599.98 1111.26C2502.09 1016.63 2453.14 898.223 2453.14 756.041C2453.14 610.13 2502.55 489.391 2601.38 393.825C2700.21 298.261 2825.15 250.479 2976.19 250.479ZM2981.77 383.337C2869.9 383.337 2777.83 418.3 2705.57 488.226C2633.78 558.151 2597.89 647.423 2597.89 756.041C2597.89 861.396 2634.01 949.038 2706.27 1018.96C2778.53 1088.89 2868.97 1123.85 2977.58 1123.85C3086.66 1123.85 3177.57 1088.19 3250.29 1016.87C3323.48 945.54 3360.08 856.734 3360.08 750.447C3360.08 646.957 3323.48 560.016 3250.29 489.624C3177.57 418.766 3088.07 383.337 2981.77 383.337ZM4667.83 264.464H4797.89V1241.33H4657.34V481.233L4356.66 858.832H4330.78L4027.3 481.233V1241.33H3887.45V264.464H4018.92L4344.07 665.836L4667.83 264.464ZM5216.19 1241.33V263.064H5525.95C5619.19 263.064 5693.55 288.238 5749.02 338.584C5804.49 388.931 5832.23 456.526 5832.23 541.369C5832.23 598.242 5818.02 648.588 5789.58 692.409C5761.14 736.228 5722.21 768.162 5672.8 788.207C5623.39 807.786 5552.53 817.575 5460.22 817.575H5356.73V1241.33H5216.19ZM5501.49 387.533H5356.73V693.107H5509.87C5566.75 693.107 5610.57 679.822 5641.33 653.251C5672.1 626.212 5687.48 587.753 5687.48 537.873C5687.48 437.646 5625.48 387.533 5501.49 387.533ZM6168.71 264.464H6308.57V1114.06H6748.4V1241.33H6168.71V264.464ZM7397.45 258.869H7496.04L7933.07 1241.33H7789.73L7659.67 951.831H7244.31L7121.24 1241.33H6977.9L7397.45 258.869ZM7602.33 827.365L7445 473.541L7298.85 827.365H7602.33ZM8256.98 264.464H8396.82V1241.33H8256.98V264.464Z" fill="white"/>
<rect x="6719.29" width="398.936" height="61.3748" fill="white"/>
<rect x="6719.29" y="398.936" width="398.936" height="61.3747" transform="rotate(-90 6719.29 398.936)" fill="white"/>
<rect x="8655.95" y="1500" width="398.936" height="61.3748" transform="rotate(-180 8655.95 1500)" fill="white"/>
<rect x="8655.95" y="1101.06" width="398.936" height="61.3742" transform="rotate(90 8655.95 1101.06)" fill="white"/>
<g clip-path="url(#clip0)">
<path d="M658.358 281.888V467.638C658.358 483.806 671.465 496.914 687.634 496.914C703.802 496.914 716.909 483.806 716.909 467.638V281.888C716.909 265.719 703.802 252.612 687.634 252.612C671.465 252.612 658.358 265.719 658.358 281.888Z" fill="white"/>
<path d="M814.598 513.061L683.253 644.406C671.82 655.839 671.82 674.375 683.253 685.808C694.685 697.241 713.222 697.241 724.655 685.808L856 554.463C867.433 543.03 867.433 524.494 856 513.061C844.567 501.628 826.031 501.628 814.598 513.061Z" fill="white"/>
<path d="M241.44 281.888V467.638C241.44 483.806 228.333 496.914 212.164 496.914C195.996 496.914 182.889 483.806 182.889 467.638V281.888C182.889 265.719 195.996 252.612 212.164 252.612C228.333 252.612 241.44 265.719 241.44 281.888Z" fill="white"/>
<path d="M676.527 1216.18V963.803C676.527 947.634 689.634 934.527 705.803 934.527C721.971 934.527 735.078 947.634 735.078 963.803V1216.18C735.078 1232.35 721.971 1245.46 705.803 1245.46C689.634 1245.46 676.527 1232.35 676.527 1216.18Z" fill="white"/>
<path d="M213.687 977.927L259.755 931.858C271.188 920.425 271.188 901.889 259.755 890.456C248.322 879.023 229.786 879.023 218.353 890.456L172.284 936.525C160.851 947.957 160.852 966.494 172.284 977.927C183.717 989.36 202.254 989.36 213.687 977.927Z" fill="white"/>
<path d="M680.445 976.856L634.376 930.788C622.943 919.355 622.943 900.818 634.376 889.385C645.809 877.952 664.345 877.953 675.778 889.385L721.847 935.454C733.28 946.887 733.28 965.423 721.847 976.856C710.414 988.289 691.877 988.289 680.445 976.856Z" fill="white"/>
<path d="M217.211 1216.67L217.211 964.292C217.211 948.124 204.104 935.017 187.935 935.017C171.766 935.017 158.659 948.124 158.659 964.292V1216.67C158.659 1232.84 171.766 1245.95 187.935 1245.95C204.104 1245.95 217.211 1232.84 217.211 1216.67Z" fill="white"/>
<path d="M70.1759 513.061L201.521 644.406C212.954 655.839 212.954 674.375 201.521 685.808C190.088 697.241 171.552 697.241 160.119 685.808L28.7737 554.463C17.3408 543.03 17.3408 524.494 28.7737 513.061C40.2066 501.628 58.743 501.628 70.1759 513.061Z" fill="white"/>
<path d="M814.598 937.302L683.253 805.956C671.82 794.524 671.82 775.987 683.253 764.554C694.685 753.121 713.222 753.121 724.655 764.554L856 895.899C867.433 907.332 867.433 925.869 856 937.302C844.567 948.734 826.031 948.734 814.598 937.302Z" fill="white"/>
<path d="M70.1759 937.301L201.521 805.956C212.954 794.524 212.954 775.987 201.521 764.554C190.088 753.122 171.552 753.122 160.119 764.554L28.7738 895.899C17.3409 907.332 17.3408 925.868 28.7737 937.301C40.2066 948.734 58.743 948.734 70.1759 937.301Z" fill="white"/>
<path d="M687.243 340.535C712.243 340.535 732.51 320.268 732.51 295.267C732.51 270.267 712.243 250 687.243 250C662.242 250 641.975 270.267 641.975 295.267C641.975 320.268 662.242 340.535 687.243 340.535Z" fill="white"/>
<path d="M707.819 1245.88C732.82 1245.88 753.086 1225.62 753.086 1200.62C753.086 1175.62 732.82 1155.35 707.819 1155.35C682.818 1155.35 662.552 1175.62 662.552 1200.62C662.552 1225.62 682.818 1245.88 707.819 1245.88Z" fill="white"/>
<path d="M189.3 1245.88C214.301 1245.88 234.568 1225.62 234.568 1200.62C234.568 1175.62 214.301 1155.35 189.3 1155.35C164.3 1155.35 144.033 1175.62 144.033 1200.62C144.033 1225.62 164.3 1245.88 189.3 1245.88Z" fill="white"/>
<path d="M835.391 957.819C860.391 957.819 880.658 937.552 880.658 912.551C880.658 887.551 860.391 867.284 835.391 867.284C810.39 867.284 790.124 887.551 790.124 912.551C790.124 937.552 810.39 957.819 835.391 957.819Z" fill="white"/>
<path d="M839.506 566.872C864.507 566.872 884.774 546.605 884.774 521.605C884.774 496.604 864.507 476.337 839.506 476.337C814.506 476.337 794.239 496.604 794.239 521.605C794.239 546.605 814.506 566.872 839.506 566.872Z" fill="white"/>
<path d="M45.2675 566.872C70.268 566.872 90.535 546.605 90.535 521.605C90.535 496.604 70.268 476.337 45.2675 476.337C20.2669 476.337 0 496.604 0 521.605C0 546.605 20.2669 566.872 45.2675 566.872Z" fill="white"/>
<path d="M45.2675 957.819C70.268 957.819 90.535 937.552 90.535 912.551C90.535 887.551 70.268 867.284 45.2675 867.284C20.2669 867.284 0 887.551 0 912.551C0 937.552 20.2669 957.819 45.2675 957.819Z" fill="white"/>
<path d="M213.992 340.535C238.992 340.535 259.259 320.268 259.259 295.267C259.259 270.267 238.992 250 213.992 250C188.991 250 168.724 270.267 168.724 295.267C168.724 320.268 188.991 340.535 213.992 340.535Z" fill="white"/>
<path fill-rule="evenodd" clip-rule="evenodd" d="M589.045 814.65H703.786C719.955 814.65 733.062 801.543 733.062 785.374C733.062 769.206 719.955 756.099 703.786 756.099H613.115C608.519 777.276 600.255 797.037 589.045 814.65Z" fill="white"/>
<path fill-rule="evenodd" clip-rule="evenodd" d="M615.876 694.263H703.786C719.955 694.263 733.062 681.156 733.062 664.988C733.062 648.817 719.955 635.71 703.786 635.71H598.214C607.189 653.682 613.284 673.412 615.876 694.263Z" fill="white"/>
<path fill-rule="evenodd" clip-rule="evenodd" d="M271.657 756.099H180.993C164.824 756.099 151.717 769.206 151.717 785.374C151.717 801.543 164.824 814.65 180.993 814.65H295.73C284.519 797.037 276.257 777.276 271.657 756.099Z" fill="white"/>
<path fill-rule="evenodd" clip-rule="evenodd" d="M286.56 635.71H180.993C164.824 635.71 151.717 648.817 151.717 664.988C151.717 681.156 164.824 694.263 180.993 694.263H268.897C271.488 673.412 277.584 653.682 286.56 635.71Z" fill="white"/>
<path d="M337.451 632.716V929.012C337.451 944.922 350.348 957.819 366.257 957.819C382.167 957.819 395.064 944.922 395.064 929.012V632.716C395.064 616.806 382.167 603.909 366.257 603.909C350.348 603.909 337.451 616.806 337.451 632.716Z" fill="white"/>
<path d="M502.058 632.716V933.127C502.058 949.037 514.955 961.934 530.864 961.934C546.774 961.934 559.671 949.037 559.671 933.127V632.716C559.671 616.807 546.774 603.909 530.864 603.909C514.955 603.909 502.058 616.807 502.058 632.716Z" fill="white"/>
<path d="M419.753 542.181V896.091C419.753 912 432.65 924.897 448.56 924.897C464.469 924.897 477.366 912 477.366 896.091V542.181C477.366 526.272 464.469 513.375 448.56 513.375C432.65 513.375 419.753 526.272 419.753 542.181Z" fill="white"/>
<path d="M237.916 456.99L384.711 603.784C396.144 615.217 396.144 633.754 384.711 645.187C373.278 656.62 354.742 656.62 343.309 645.187L196.514 498.392C185.081 486.959 185.081 468.423 196.514 456.99C207.947 445.557 226.483 445.557 237.916 456.99Z" fill="white"/>
<path d="M661.885 457.144L511.129 607.9C499.696 619.333 499.696 637.869 511.129 649.302C522.562 660.735 541.098 660.735 552.531 649.302L703.287 498.546C714.72 487.113 714.72 468.577 703.287 457.144C691.854 445.711 673.318 445.711 661.885 457.144Z" fill="white"/>
<path fill-rule="evenodd" clip-rule="evenodd" d="M449.198 549.012C490.46 549.012 523.909 515.563 523.909 474.3C523.909 433.038 490.46 399.588 449.198 399.588C407.935 399.588 374.486 433.038 374.486 474.3C374.486 515.563 407.935 549.012 449.198 549.012ZM449.198 507.86C467.732 507.86 482.757 492.835 482.757 474.3C482.757 455.766 467.732 440.741 449.198 440.741C430.663 440.741 415.638 455.766 415.638 474.3C415.638 492.835 430.663 507.86 449.198 507.86Z" fill="white"/>
<path fill-rule="evenodd" clip-rule="evenodd" d="M365.617 1078.44C406.88 1078.44 440.329 1044.99 440.329 1003.72C440.329 962.462 406.88 929.012 365.617 929.012C324.355 929.012 290.906 962.462 290.906 1003.72C290.906 1044.99 324.355 1078.44 365.617 1078.44ZM365.617 1037.28C384.152 1037.28 399.177 1022.26 399.177 1003.72C399.177 985.19 384.152 970.165 365.617 970.165C347.083 970.165 332.058 985.19 332.058 1003.72C332.058 1022.26 347.083 1037.28 365.617 1037.28Z" fill="white"/>
<path fill-rule="evenodd" clip-rule="evenodd" d="M531.502 1078.44C572.764 1078.44 606.214 1044.99 606.214 1003.72C606.214 962.462 572.764 929.012 531.502 929.012C490.24 929.012 456.79 962.462 456.79 1003.72C456.79 1044.99 490.24 1078.44 531.502 1078.44ZM531.502 1037.28C550.036 1037.28 565.062 1022.26 565.062 1003.72C565.062 985.19 550.036 970.165 531.502 970.165C512.968 970.165 497.942 985.19 497.942 1003.72C497.942 1022.26 512.968 1037.28 531.502 1037.28Z" fill="white"/>
<path fill-rule="evenodd" clip-rule="evenodd" d="M449.198 1217.2C490.46 1217.2 523.909 1183.75 523.909 1142.49C523.909 1101.23 490.46 1067.78 449.198 1067.78C407.935 1067.78 374.486 1101.23 374.486 1142.49C374.486 1183.75 407.935 1217.2 449.198 1217.2ZM449.197 1176.05C467.732 1176.05 482.757 1161.02 482.757 1142.49C482.757 1123.96 467.732 1108.93 449.197 1108.93C430.663 1108.93 415.638 1123.96 415.638 1142.49C415.638 1161.02 430.663 1176.05 449.197 1176.05Z" fill="white"/>
</g>
<defs>
<clipPath id="clip0">
<rect y="250" width="884.774" height="1000" fill="white"/>
</clipPath>
</defs>
</svg>
