<svg width="215" height="242" viewBox="0 0 215 242" fill="none" xmlns="http://www.w3.org/2000/svg">
<rect x="159.981" y="59.7305" width="59.3653" height="14.228" rx="7.11402" transform="rotate(-90 159.981 59.7305)" fill="#001F54"/>
<rect x="160.962" y="100.365" width="59.3653" height="14.228" rx="7.11402" transform="rotate(-45 160.962 100.365)" fill="#001F54"/>
<rect width="59.3653" height="14.228" rx="7.11402" transform="matrix(0 -1 -1 0 58.6699 59.3652)" fill="#001F54"/>
<rect width="75.5558" height="14.228" rx="7.11402" transform="matrix(0 1 1 0 164.396 165.365)" fill="#001F54"/>
<rect x="68.1509" y="159.365" width="30.0597" height="14.228" rx="7.11402" transform="rotate(135 68.1509 159.365)" fill="#001F54"/>
<rect width="30.0597" height="14.228" rx="7.11402" transform="matrix(0.707107 0.707107 0.707107 -0.707107 149.123 159.365)" fill="#001F54"/>
<rect x="52.7822" y="165.365" width="75.5558" height="14.228" rx="7.11402" transform="rotate(90 52.7822 165.365)" fill="#001F54"/>
<rect width="89.7839" height="14.228" rx="7.11402" transform="matrix(-1 0 0 1 178.134 93.3652)" fill="#001F54"/>
<rect width="59.3653" height="14.228" rx="7.11402" transform="matrix(-0.707107 -0.707107 -0.707107 0.707107 54.0386 100.365)" fill="#001F54"/>
<rect x="36.8672" y="93.3652" width="89.7839" height="14.228" rx="7.11402" fill="#001F54"/>
<rect width="59.3653" height="14.228" rx="7.11402" transform="matrix(0.707107 0.707107 0.707107 -0.707107 160.962 129.365)" fill="#001F54"/>
<rect x="178.134" y="136.365" width="89.7839" height="14.228" rx="7.11402" transform="rotate(180 178.134 136.365)" fill="#001F54"/>
<rect x="54.0386" y="129.365" width="59.3653" height="14.228" rx="7.11402" transform="rotate(135 54.0386 129.365)" fill="#001F54"/>
<rect width="89.7839" height="14.228" rx="7.11402" transform="matrix(1 0 0 -1 36.8672 136.365)" fill="#001F54"/>
<circle cx="109.153" cy="53.8635" r="13.153" fill="white" stroke="#001F54" stroke-width="10"/>
<circle cx="167" cy="11.3652" r="11" fill="#001F54"/>
<circle cx="172" cy="230.365" r="11" fill="#001F54"/>
<circle cx="46" cy="230.365" r="11" fill="#001F54"/>
<circle cx="204" cy="160.365" r="11" fill="#001F54"/>
<circle cx="204" cy="65.3652" r="11" fill="#001F54"/>
<circle cx="11" cy="65.3652" r="11" fill="#001F54"/>
<circle cx="11" cy="160.365" r="11" fill="#001F54"/>
<circle cx="52" cy="11.3652" r="11" fill="#001F54"/>
<circle cx="89.153" cy="182.518" r="13.153" fill="white" stroke="#001F54" stroke-width="10"/>
<circle cx="129.153" cy="182.518" r="13.153" fill="white" stroke="#001F54" stroke-width="10"/>
<circle cx="109.153" cy="216.239" r="13.153" fill="white" stroke="#001F54" stroke-width="10"/>
<ellipse cx="109.5" cy="113.865" rx="42.5" ry="43.5" fill="white"/>
<rect x="82" y="171.365" width="86" height="14" rx="7" transform="rotate(-90 82 171.365)" fill="#001F54"/>
<rect x="122" y="172.365" width="87" height="14" rx="7" transform="rotate(-90 122 172.365)" fill="#001F54"/>
<rect x="103" y="163.365" width="100" height="14" rx="7" transform="rotate(-90 103 163.365)" fill="#001F54"/>
<rect width="64.6746" height="14.228" rx="7.11402" transform="matrix(-0.707107 -0.707107 -0.707107 0.707107 98.5151 90.3652)" fill="#001F54"/>
<rect x="119.174" y="91.3652" width="66.0359" height="14.228" rx="7.11402" transform="rotate(-45 119.174 91.3652)" fill="#001F54"/>
</svg>
